<?xml version="1.0" encoding="UTF-8"?>
<svg width="18px" height="18px" viewBox="0 0 18 18" version="1.1" xmlns="http://www.w3.org/2000/svg" xmlns:xlink="http://www.w3.org/1999/xlink">
    <!-- Generator: Sketch 51.2 (57519) - http://www.bohemiancoding.com/sketch -->
    <title>Artboard 4 Copy 2</title>
    <desc>Created with Sketch.</desc>
    <defs></defs>
    <g id="Artboard-4-Copy-2" stroke="none" stroke-width="1" fill="none" fill-rule="evenodd">
        <path d="M6.67633351,14 L8.27861212,14 C8.48886587,14 8.67011911,13.8245847 8.67011911,13.6053156 L8.67011911,10.1116279 L7.58259969,9.51229236 L6.28482651,10.2870432 L6.28482651,13.6053156 C6.28482651,13.8245847 6.45882962,14 6.67633351,14 Z M2,10.1700997 L7.24909373,7.04186047 L7.55359917,6.85913621 L7.86535474,7.0345515 L9.43863283,7.90431894 L13.6509581,4.2717608 L13.0564474,3.58471761 L14.5282237,3.2923588 L16,3 L15.5142413,4.43255814 L15.0284827,5.86511628 L14.4702227,5.22192691 L9.92439151,9.14684385 L9.59813568,9.43189369 L9.22112895,9.21993355 L7.57534956,8.30631229 L2.63076126,11.2518272 L2,10.1700997 Z M3.32677369,14 L4.9290523,14 C5.13930606,14 5.3205593,13.8245847 5.3205593,13.6053156 L5.3205593,10.8644518 L2.9352667,12.282392 L2.9352667,13.6053156 C2.9352667,13.8245847 3.10926981,14 3.32677369,14 Z M10.0258933,14 L11.6281719,14 C11.8384257,14 12.0196789,13.8245847 12.0196789,13.6053156 L12.0196789,8.70099668 C12.0196789,8.67906977 12.0196789,8.65714286 12.0124288,8.64252492 L9.66338685,10.6671096 L9.63438633,10.6524917 L9.63438633,13.6126246 C9.63438633,13.8245847 9.80838944,14 10.0258933,14 Z M13.3754531,14 L14.9777317,14 C15.1879855,14 15.3692387,13.8245847 15.3692387,13.6053156 L15.3692387,7.68504983 L14.4049715,6.57408638 L12.9839461,7.80199336 L12.9839461,13.6053156 C12.9839461,13.8245847 13.1579492,14 13.3754531,14 Z" id="Shape" fill="#3A3B54" fill-rule="nonzero"></path>
    </g>
</svg>