<?xml version="1.0" encoding="UTF-8"?>
<svg width="18px" height="18px" viewBox="0 0 18 18" version="1.1" xmlns="http://www.w3.org/2000/svg" xmlns:xlink="http://www.w3.org/1999/xlink">
    <!-- Generator: Sketch 51.2 (57519) - http://www.bohemiancoding.com/sketch -->
    <title>Artboard 4 Copy 4</title>
    <desc>Created with Sketch.</desc>
    <defs></defs>
    <g id="Artboard-4-Copy-4" stroke="none" stroke-width="1" fill="none" fill-rule="evenodd">
        <path d="M13.604464,4.645128 C13.4608,4.51256 13.272752,4.446276 13.08558,4.446276 C13.063388,4.446276 13.052292,4.446276 13.030392,4.446276 C13.019296,4.446276 12.897824,4.457372 12.710068,4.457372 C12.389744,4.457372 11.782676,4.43518 11.1978,4.291808 C10.446776,4.11544 9.574572,3.287328 9.320532,3.121472 C9.199352,3.044092 9.044592,3 8.900928,3 C8.757556,3 8.614184,3.044092 8.481616,3.121472 C8.44862,3.143664 7.54342,4.08186 6.66012,4.291808 C6.074952,4.43518 5.445692,4.457372 5.136756,4.457372 C4.937904,4.457372 4.816724,4.446276 4.805628,4.446276 C4.794532,4.446276 4.77234,4.446276 4.761536,4.446276 C4.562684,4.446276 4.386024,4.51256 4.242652,4.645128 C4.088184,4.777696 4,4.976256 4,5.175108 L4,7.007408 C4,13.763996 8.581188,14.635616 8.768944,14.668904 C8.813036,14.68 8.85742,14.68 8.90122,14.68 C8.945312,14.68 8.989988,14.68 9.03408,14.668904 C9.23264,14.635616 13.83602,13.763704 13.83602,7.007408 L13.83602,5.175108 C13.83602,4.976256 13.747252,4.777696 13.604464,4.645128 Z M11.904148,7.26174 L8.735656,10.330368 C8.713464,10.363656 8.691564,10.396944 8.658276,10.419136 C8.5698,10.50732 8.44862,10.551412 8.327148,10.551412 C8.205384,10.551412 8.084204,10.50732 7.984924,10.419136 C7.962732,10.396944 7.930028,10.363948 7.91864,10.330368 L6.218616,8.685532 C6.041956,8.508872 6.041956,8.233224 6.218616,8.056564 C6.394984,7.879612 6.693116,7.879612 6.869776,8.056564 L8.327148,9.458456 L11.252696,6.63248 C11.440744,6.45582 11.727196,6.45582 11.903856,6.63248 C12.091612,6.798044 12.091612,7.08508 11.904148,7.26174 Z" id="Shape" fill="#3A3B54" fill-rule="nonzero"></path>
    </g>
</svg>