<?xml version="1.0" encoding="UTF-8"?>
<svg width="18px" height="18px" viewBox="0 0 18 18" version="1.1" xmlns="http://www.w3.org/2000/svg" xmlns:xlink="http://www.w3.org/1999/xlink">
    <!-- Generator: Sketch 51.2 (57519) - http://www.bohemiancoding.com/sketch -->
    <title>Artboard 4 Copy 5</title>
    <desc>Created with Sketch.</desc>
    <defs></defs>
    <g id="Artboard-4-Copy-5" stroke="none" stroke-width="1" fill="none" fill-rule="evenodd">
        <path d="M14.9367273,5.72727273 L12.2836364,3.06327273 C12.2418254,3.02340355 12.1864946,3.00080367 12.1287273,3 L3.21818182,3 C3.09768333,3 3,3.09768333 3,3.21818182 L3,14.7818182 C3,14.9023167 3.09768333,15 3.21818182,15 L14.7818182,15 C14.9023167,15 15,14.9023167 15,14.7818182 L15,5.87127273 C14.9965641,5.81730978 14.9741514,5.76630144 14.9367273,5.72727273 Z M6.27272727,4.52727273 L7.14545455,4.52727273 L7.14545455,6.27272727 L10.2,6.27272727 L10.2,4.52727273 L11.0727273,4.52727273 L11.0727273,6.92727273 C11.0727273,7.04777122 10.9750439,7.14545455 10.8545455,7.14545455 L6.49090909,7.14545455 C6.3704106,7.14545455 6.27272727,7.04777122 6.27272727,6.92727273 L6.27272727,4.52727273 Z M6.20072727,9.43636364 C6.20072727,9.31586515 6.2984106,9.21818182 6.41890909,9.21818182 L8.98254545,9.21818182 C9.10304395,9.21818182 9.20072727,9.31586515 9.20072727,9.43636364 L9.20072727,9.87272727 C9.20072727,9.99322576 9.10304395,10.0909091 8.98254545,10.0909091 L6.41672727,10.0909091 C6.29622878,10.0909091 6.19854545,9.99322576 6.19854545,9.87272727 L6.20072727,9.43636364 Z M11.7992727,11.8189091 C11.7992727,11.9394076 11.7015894,12.0370909 11.5810909,12.0370909 L6.41672727,12.0370909 C6.29622878,12.0370909 6.19854545,11.9394076 6.19854545,11.8189091 L6.19854545,11.3825455 C6.19854545,11.262047 6.29622878,11.1643636 6.41672727,11.1643636 L11.5832727,11.1643636 C11.7037712,11.1643636 11.8014545,11.262047 11.8014545,11.3825455 L11.7992727,11.8189091 Z" id="Shape" fill="#3A3B54" fill-rule="nonzero"></path>
    </g>
</svg>