<?xml version="1.0" encoding="UTF-8"?>
<svg width="18px" height="18px" viewBox="0 0 18 18" version="1.1" xmlns="http://www.w3.org/2000/svg" xmlns:xlink="http://www.w3.org/1999/xlink">
    <!-- Generator: Sketch 51.2 (57519) - http://www.bohemiancoding.com/sketch -->
    <title>Artboard 4 Copy 6</title>
    <desc>Created with Sketch.</desc>
    <defs></defs>
    <g id="Artboard-4-Copy-6" stroke="none" stroke-width="1" fill="none" fill-rule="evenodd">
        <path d="M16.5420796,10.1101575 L16.5420796,13.8131012 L16.3569976,13.894588 C16.3460533,13.899409 16.2895719,13.9237348 16.1870071,13.9602996 C16.7350915,13.8455495 17,13.7434804 17,13.7434804 L17,10.272979 C17,10.272979 16.8662814,10.201742 16.5420796,10.1101575 Z M9.41967275,9.94718395 C10.0153982,10.027386 10.7894691,10.0863565 11.7788855,10.0863565 C13.2402417,10.0863565 14.2471366,9.95770995 14.904138,9.82135536 C14.2994103,9.75818551 13.5415637,9.71428571 12.6028834,9.71428571 C11.1146824,9.71428571 10.0943953,9.82460157 9.41967275,9.94718395 Z M11.7788855,12.5003343 C10.3783602,12.5003343 9.1993304,12.3906124 8.27272727,12.1742768 L8.27272727,13.6289928 C8.92651209,13.7932925 10.0844625,14 11.7744148,14 C13.9967329,14 15.2826365,13.649962 15.7340025,13.4988958 L15.7340025,12.0672209 C15.6154673,12.1014123 15.4952377,12.1327972 15.3735287,12.1613196 C14.4170867,12.3862749 13.2076718,12.5003343 11.7788855,12.5003343 Z M11.7788855,10.638143 C10.3783602,10.638143 9.19935063,10.5284211 8.27272727,10.3120855 L8.27272727,11.5840469 C8.86339529,11.7485675 9.95620598,11.9485478 11.7788855,11.9485478 C14.1222787,11.9485478 15.297303,11.6178351 15.7340025,11.4548616 L15.7340025,10.2050158 C15.6154638,10.2392012 15.4952344,10.270586 15.3735287,10.2991145 C14.4170867,10.5240836 13.2076718,10.638143 11.7788855,10.638143 Z" id="Shape" fill="#3A3B54" fill-rule="nonzero"></path>
        <path d="M5.44221452,8.28571429 C7.88573578,8.28571429 8.97903426,7.96747134 9.27272727,7.86264906 L9.27272727,6.85714286 C9.14639665,6.88984031 8.99751378,6.92420401 8.82394715,6.95818902 C7.9241412,7.13438956 6.7863853,7.2237287 5.44221452,7.2237287 C4.09707313,7.2237287 2.96894713,7.13420563 2.08914321,6.95763721 C2.05933079,6.95163844 2.02961515,6.94548532 2,6.93917863 L2,7.96489622 C2.51297313,8.09838017 3.56691462,8.28571429 5.44221452,8.28571429 Z M2.08915704,9.73440046 C2.05933999,9.72786346 2.02961975,9.72115827 2,9.71428571 L2,10.7932662 C2.51305268,10.9387149 3.56713857,11.1428571 5.4427483,11.1428571 C6.44974314,11.1428571 7.22735466,11.0839514 7.81435591,11.006723 L7.81818182,9.89846652 C7.12146641,9.98195568 6.32710463,10.0243664 5.4427483,10.0243664 C4.09739833,10.0243664 2.96909739,9.92681109 2.08915704,9.73440046 Z M2.08915704,11.1629719 C2.05933999,11.1564349 2.02961975,11.1497297 2,11.1428571 L2,12.2218376 C2.51305268,12.3672863 3.56713857,12.5714286 5.4427483,12.5714286 C6.44974314,12.5714286 7.22735466,12.5125228 7.81435591,12.4352944 L7.81818182,11.3270379 C7.12146641,11.4105271 6.32710463,11.4529379 5.4427483,11.4529379 C4.09739833,11.4529379 2.96909739,11.3553825 2.08915704,11.1629719 Z M2.0892417,12.5895 C2.05939634,12.583627 2.02964787,12.577603 2,12.5714286 L2,13.7063771 C2.64812644,13.8346034 3.79910436,14 5.4247361,14 C6.39073372,14 7.1888411,13.9415487 7.81383786,13.8672294 L7.81818182,12.7374925 C7.1221194,12.8121085 6.32887039,12.8500096 5.44599864,12.8500096 C4.09939011,12.849999 2.97001769,12.7623645 2.0892417,12.5895 Z M10.8326914,8.27493316 L11.1961982,8.23260238 L11.1961982,4.16399211 C11.1961982,4.16399211 11.0512572,4.09278379 10.7272727,4 L10.7272727,8.28571429 C10.7942649,8.27826671 10.8326914,8.27493316 10.8326914,8.27493316 Z M9.27272727,8.28571429 C9.14639665,8.31924706 8.99751378,8.35448864 8.82394715,8.38934186 C7.9241412,8.57004376 6.7863853,8.66166523 5.44221452,8.66166523 C4.09707313,8.66166523 2.96894713,8.56985513 2.08914321,8.38877595 C2.05933079,8.38262393 2.02961515,8.37631362 2,8.36984581 L2,9.38527177 C2.51297313,9.52215471 3.56689559,9.71428571 5.44221452,9.71428571 C6.4532211,9.71428571 7.23212039,9.65880463 7.81895449,9.58615769 L7.82019154,9.24878829 C8.02603547,8.9477812 8.70344014,8.76837756 9.27272727,8.66776815 L9.27272727,8.28571429 Z M2,4.85901774 L2,4.88615318 C2.6012409,5.13753852 3.67805817,5.42857143 5.44221452,5.42857143 C7.6077437,5.42857143 8.76839441,4.9900271 9.27272727,4.72442519 L9.27272727,4.3738725 C9.25158278,4.36210425 9.23028471,4.35062409 9.20883877,4.33943509 C8.52911226,4.15857091 7.55184839,4 6.21338704,4 C3.09786603,4 2,4.85901774 2,4.85901774 Z" id="Shape" fill="#3A3B54" fill-rule="nonzero"></path>
        <path d="M9.27272727,6.47485626 L9.27272727,5.42857143 C9.13316981,5.46509793 8.94759434,5.50723637 8.70840735,5.54956058 C8.29556699,5.62261552 7.6621959,5.7054321 6.76706647,5.74901021 C6.37643979,5.76802731 5.93596455,5.77957195 5.44221452,5.77957195 C3.81696856,5.77957195 2.78595994,5.65446672 2.20723323,5.54952147 C2.13756786,5.53690288 2.06847213,5.52346918 2,5.50923086 L2,6.56725775 C2.51297313,6.68786559 3.56691462,6.85714286 5.44221452,6.85714286 C7.88573578,6.85714286 8.97903426,6.56957487 9.27272727,6.47485626 Z" id="Shape" fill="#3A3B54" fill-rule="nonzero"></path>
    </g>
</svg>