<?xml version="1.0" encoding="UTF-8"?>
<svg width="18px" height="18px" viewBox="0 0 18 18" version="1.1" xmlns="http://www.w3.org/2000/svg" xmlns:xlink="http://www.w3.org/1999/xlink">
    <!-- Generator: Sketch 51.2 (57519) - http://www.bohemiancoding.com/sketch -->
    <title>Artboard 4</title>
    <desc>Created with Sketch.</desc>
    <defs></defs>
    <g id="Artboard-4" stroke="none" stroke-width="1" fill="none" fill-rule="evenodd">
        <path d="M6.85947263,6.17520132 C6.3275373,6.17520132 5.91380982,6.64370622 5.91380982,7.24606966 C5.91380982,7.84843311 6.3275373,8.31693801 6.85947263,8.316938 C7.39140796,8.31693798 7.80513544,7.84843309 7.80513544,7.24606966 C7.80513544,6.64370624 7.361856,6.17520132 6.85947263,6.17520132 Z" id="Shape" fill="#000000" fill-rule="nonzero"></path>
        <path d="M11.3809229,4 C9.63735712,4.97047443 8.48483058,4.87008052 6.68216085,4 C3.52010084,4 1.71743112,13.4704919 4.08158814,13.4704919 C6.09112161,13.4704919 6.35708927,10.6929271 9.07586982,10.6929271 C11.292267,10.6929271 12.5925534,13.4370273 14.0701515,13.4370273 C16.3752046,13.4370273 13.9814956,3.99999999 11.3809229,4 Z M6.85947263,9.01969535 C6.00246571,9.01969535 5.32277057,8.25000873 5.32277057,7.27953429 C5.32277057,6.30905986 6.00246571,5.53937323 6.85947263,5.53937323 C7.71647955,5.53937323 8.39617469,6.30905986 8.39617469,7.27953429 C8.39617469,8.25000873 7.68692759,9.01969535 6.85947263,9.01969535 Z M10.3761562,7.3799282 C10.1397405,7.31299893 10.0215326,7.04528184 10.1101885,6.77756476 C10.1692924,6.54331231 10.4057082,6.37598913 10.6421239,6.47638304 C10.8785395,6.54331231 10.9967474,6.8110294 10.9080915,7.07874648 C10.8489876,7.31299893 10.6125719,7.44685747 10.3761562,7.3799282 Z M11.4104749,8.11615019 C11.351371,8.35040264 11.1149552,8.51772582 10.8785395,8.41733191 C10.6421239,8.35040264 10.523916,8.08268554 10.6125719,7.81496846 C10.6716758,7.58071601 10.9080915,7.41339283 11.1445072,7.51378674 C11.351371,7.61418066 11.4991308,7.88189773 11.4104749,8.11615019 Z M11.4695788,6.97835257 C11.2331631,6.9114233 11.1149552,6.64370621 11.2036111,6.37598913 C11.2627151,6.14173668 11.4991308,5.97441349 11.7355465,6.07480741 C11.9719622,6.14173668 12.09017,6.40945377 12.0015141,6.67717085 C11.9128582,6.9114233 11.6764425,7.04528184 11.4695788,6.97835257 Z M12.5334495,7.78150382 C12.4743455,8.01575627 12.2379298,8.18307946 12.0015141,8.08268554 C11.7650984,8.01575627 11.6468906,7.74803918 11.7355465,7.4803221 C11.7946504,7.24606965 12.0310661,7.07874647 12.2674818,7.17914038 C12.4743455,7.24606965 12.5925534,7.51378674 12.5334495,7.78150382 Z" id="Shape" fill="#3A3B54" fill-rule="nonzero"></path>
    </g>
</svg>