<?xml version="1.0" encoding="UTF-8"?>
<svg width="18px" height="18px" viewBox="0 0 18 18" version="1.1" xmlns="http://www.w3.org/2000/svg" xmlns:xlink="http://www.w3.org/1999/xlink">
    <!-- Generator: Sketch 51.2 (57519) - http://www.bohemiancoding.com/sketch -->
    <title>Artboard 4 Copy 7</title>
    <desc>Created with Sketch.</desc>
    <defs></defs>
    <g id="Artboard-4-Copy-7" stroke="none" stroke-width="1" fill="none" fill-rule="evenodd">
        <path d="M10.2677177,10.8329114 L12.4955262,6.43688969 C12.7861099,5.86329114 13.359466,5.50753466 13.9921886,5.50753466 L14,5.50753466 L14,4.02495479 C14,3.46075949 13.5031956,3 12.8923448,3 L4.10765516,3 C3.49680443,3 3,3.45919228 3,4.02495479 L3,14.9750452 C3,15.5392405 3.49680443,16 4.10765516,16 L12.8923448,16 C13.5031956,16 14,15.5408077 14,14.973478 L14,13.3545509 L11.7643801,13.3545509 C11.1847749,13.3545509 10.6520381,13.055214 10.3395824,12.5521398 L10.3380202,12.5490054 L10.3364579,12.545871 C10.1802301,12.2904159 10.0911802,11.9973478 10.0802443,11.6964436 C10.0677461,11.3986739 10.1333617,11.0993369 10.2677177,10.8329114 Z M9.83680556,12.853125 C9.73611111,12.94375 9.59722222,13 9.44444444,13 L5.55555556,13 C5.25,13 5,12.775 5,12.5 C5,12.3625 5.0625,12.2375 5.16319444,12.146875 C5.26388889,12.05625 5.40277778,12 5.55555556,12 L9.44444444,12 C9.75,12 10,12.225 10,12.5 C10,12.6375 9.9375,12.7625 9.83680556,12.853125 Z M9.83680556,9.853125 C9.73611111,9.94375 9.59722222,10 9.44444444,10 L5.55555556,10 C5.25,10 5,9.775 5,9.5 C5,9.3625 5.0625,9.2375 5.16319444,9.146875 C5.26388889,9.05625 5.40277778,9 5.55555556,9 L9.44444444,9 C9.75,9 10,9.225 10,9.5 C10,9.6375 9.9375,9.7625 9.83680556,9.853125 Z M5.5,7 C5.225,7 5,6.775 5,6.5 C5,6.3625 5.05625,6.2375 5.146875,6.146875 C5.2375,6.05625 5.3625,6 5.5,6 L11.5,6 C11.775,6 12,6.225 12,6.5 C12,6.6375 11.94375,6.7625 11.853125,6.853125 C11.7625,6.94375 11.6375,7 11.5,7 L5.5,7 Z M16.9167379,10.9055794 L14.6219074,6.39270386 C14.4996022,6.15128755 14.2598198,6 13.9991168,6 C13.7368044,6 13.4986313,6.15128755 13.3763261,6.39270386 L11.0831049,10.9055794 C10.962409,11.1453863 10.9736739,11.4334764 11.1136811,11.6620172 C11.2456419,11.8728541 11.4645038,12 11.7058955,12 L16.292338,12 C16.5337298,12 16.7558101,11.8728541 16.8877709,11.6620172 C17.0261689,11.4334764 17.0374338,11.1437768 16.9167379,10.9055794 Z M14,8.5007874 C14,8.22362205 14.2257053,8 14.5,8 C14.7758621,8 15,8.22362205 15,8.5007874 L15,9.4992126 C15,9.77637795 14.7742947,10 14.5,10 C14.2241379,10 14,9.77637795 14,9.4992126 L14,8.5007874 Z M14.4984375,11 C14.221875,11 14,10.775 14,10.4984375 C14,10.221875 14.225,10 14.4984375,10 C14.775,10 15,10.225 15,10.4984375 C14.9984375,10.7765625 14.775,11 14.4984375,11 Z" id="Shape" fill="#3B3C54" fill-rule="nonzero"></path>
    </g>
</svg>