<?xml version="1.0" encoding="UTF-8"?>
<svg width="720px" height="405px" viewBox="0 0 720 405" version="1.1" xmlns="http://www.w3.org/2000/svg" xmlns:xlink="http://www.w3.org/1999/xlink">
    <!-- Generator: Sketch 51.2 (57519) - http://www.bohemiancoding.com/sketch -->
    <title>Group 12</title>
    <desc>Created with Sketch.</desc>
    <defs>
        <rect id="path-1" x="0" y="0" width="720" height="405"></rect>
        <polygon id="path-3" points="0.165167844 0.428897983 100.845346 0.428897983 100.845346 163.895381 0.165167844 163.895381"></polygon>
        <polygon id="path-5" points="0.223581884 0.994049081 55.7281027 0.994049081 55.7281027 86.2914075 0.223581884 86.2914075"></polygon>
    </defs>
    <g id="Page-1" stroke="none" stroke-width="1" fill="none" fill-rule="evenodd">
        <g id="详情页未加载" transform="translate(-133.000000, -394.000000)">
            <g id="Group-12" transform="translate(133.000000, 394.000000)">
                <g id="Bitmap">
                    <mask id="mask-2" fill="white">
                        <use xlink:href="#path-1"></use>
                    </mask>
                    <use id="Mask" fill="#F3F7FB" xlink:href="#path-1"></use>
                </g>
                <g id="Group-38-Copy-2" opacity="0.243024554" transform="translate(269.000000, 104.000000)">
                    <g id="Group-28">
                        <g id="Group-12-Copy-5" transform="translate(91.070375, 133.448683) rotate(86.000000) translate(-91.070375, -133.448683) translate(33.070375, 46.948683)">
                            <path d="M19.662657,96.4974538 C19.662657,96.4974538 73.5878677,147.858319 48.2734467,167.120199 C36.947462,175.736374 25.7200867,173.096736 18.1553432,169.23689 C8.77337077,164.443209 2.7300282,155.702524 0.800102945,146.289478 C-4.66567076,119.432415 19.662657,96.4974538 19.662657,96.4974538 Z M70.4064335,163.895381 C70.4064335,163.895381 72.9550844,146.966757 59.9665052,128.082434 C46.9779259,109.198111 41.4444913,104.140701 41.4444913,104.140701 C41.4444913,104.140701 -3.17734337,57.2288544 4.31868873,27.843553 C11.8419791,-1.54174834 42.9300686,-3.68429681 65.0774361,4.68659023 C65.0774361,4.68659023 45.4923487,11.5003926 46.3373559,30.3722585 C47.1959923,49.2565811 62.3107188,63.2703428 73.8137208,74.7553992 C85.3167228,86.2404555 107.886594,102.98223 103.62067,125.939886 C100.690403,141.747409 85.3712394,160.021354 70.4064335,163.895381 Z M69.4590328,19.4346785 C79.4378385,17.4344277 92.3327027,23.596691 105.816129,48.4693748 C122.121979,78.5601041 111.875645,110.390182 112.089668,103.40794 C112.290314,96.4132742 100.585951,84.1881389 74.8764809,59.7254444 C58.0355742,43.7110142 58.4234903,32.3555531 60.6841044,26.4169204 C62.0752516,22.7518646 65.3658497,20.254657 69.4590328,19.4346785 Z" id="Combined-Shape" fill="#CDDBE9"></path>
                            <g id="Group-5" transform="translate(3.304761, -0.000000)">
                                <mask id="mask-4" fill="white">
                                    <use xlink:href="#path-3"></use>
                                </mask>
                                <g id="Clip-4"></g>
                            </g>
                            <g id="Group-8" transform="translate(59.339155, 18.090411)">
                                <mask id="mask-6" fill="white">
                                    <use xlink:href="#path-5"></use>
                                </mask>
                                <g id="Clip-7"></g>
                            </g>
                        </g>
                        <g id="Group-3" transform="translate(94.205357, 40.000000) scale(-1, 1) translate(-94.205357, -40.000000) translate(45.705357, 0.000000)">
                            <path d="M28.4529661,18.2424081 C34.3177203,20.9346401 42.5898954,24.5766774 44.5204236,28.4501583 C46.3871427,32.1956107 45.0789323,26.3102767 40.5957921,10.7941564 C48.262141,6.88751498 56.5597683,4.02501734 65.2410349,2.34774099 C74.6790983,0.522638648 85.8969534,-0.399278849 96.2065344,1.98087545 C96.2065344,1.98087545 72.0877906,16.3193498 72.2069675,47.3312051 C74.3040863,59.0846513 79.1738046,69.7127702 90.6742148,79.8168172 C83.2149845,76.2110711 72.4873422,74.6762233 58.4912878,75.2122737 C37.4972062,76.0163494 31.9088694,74.1367862 24.5639994,71.617748 C16.1621723,68.7362098 8.29904301,63.624481 0.974611471,56.2825614 C0.974611471,56.2825614 2.78828084,40.2568534 22.3541394,23.1183943 C24.3104283,21.4053919 26.345733,19.7787173 28.4529661,18.2424081 Z" id="Combined-Shape" fill="#CDDBE9"></path>
                            <path d="" id="Path-23" stroke="#979797"></path>
                        </g>
                        <path d="M16.1882455,58.0133607 C19.0721473,55.9936773 25.0239926,55.1034384 34.0437812,55.3426441 C31.1647284,65.1206749 26.6438474,69.8315971 20.4811384,69.4754107 C12.5313572,67.7370048 11.8623929,61.0428858 16.1882455,58.0133607 Z" id="Path-22" fill="#CDDBE9"></path>
                        <path d="M32.8708101,42.945963 C34.224184,43.5779868 35.5459704,45.3902785 36.8361694,48.3828383 C32.0012333,48.9545159 29.1862633,48.2030989 28.3912593,46.1285872 C27.9397641,43.254342 30.8407492,41.9979275 32.8708101,42.945963 Z" id="Path-22-Copy-2" fill="#CDDBE9"></path>
                    </g>
                </g>
            </g>
        </g>
    </g>
</svg>