<?xml version="1.0" encoding="UTF-8"?>
<svg width="20px" height="20px" viewBox="0 0 20 20" version="1.1" xmlns="http://www.w3.org/2000/svg" xmlns:xlink="http://www.w3.org/1999/xlink">
    <!-- Generator: Sketch 51.2 (57519) - http://www.bohemiancoding.com/sketch -->
    <title>Artboard 3</title>
    <desc>Created with Sketch.</desc>
    <defs></defs>
    <g id="Artboard-3" stroke="none" stroke-width="1" fill="none" fill-rule="evenodd">
        <g id="亮点-copy" transform="translate(-2.000000, -2.000000)" fill-rule="nonzero">
            <rect id="Rectangle-path" fill="#000000" opacity="0" x="0" y="0" width="23" height="23"></rect>
            <path d="M12,2 C6.47714823,2 2,6.47714823 2,12 C2,17.5228518 6.47714823,22 12,22 C17.5228518,22 22,17.5228518 22,12 C22,6.47714823 17.5228518,2 12,2 Z M12,20.0000094 C7.58171859,20.0000094 4.00001411,16.4182814 4.00001411,12 C4.00001411,7.58171856 7.5817421,4.00001408 12,4.00001408 C16.4182579,4.00001408 19.9999859,7.58174208 19.9999859,12 C19.9999859,16.4182579 16.4182814,20.0000094 12,20.0000094 Z M8.66667451,9.8333337 C8.66667451,11.6742785 10.1590552,13.1666592 12,13.1666592 C13.8409448,13.1666592 15.3333255,11.6742785 15.3333255,9.8333337 C15.3333255,7.99238887 13.8409448,6.50000821 12,6.50000821 C10.1590552,6.50000821 8.66667451,7.99238887 8.66667451,9.8333337 Z M10.6784244,12.1666757 L13.3450942,12.1666757 L13.3450942,14.1666663 L10.6784244,14.1666663 L10.6784244,12.1666757 Z M10.6784244,15.1666733 L13.3450942,15.1666733 L13.3450942,17.1666639 L10.6784244,17.1666639 L10.6784244,15.1666733 Z" id="Shape" fill="#FFFFFF"></path>
        </g>
    </g>
</svg>