<?xml version="1.0" encoding="UTF-8"?>
<svg width="20px" height="20px" viewBox="0 0 20 20" version="1.1" xmlns="http://www.w3.org/2000/svg" xmlns:xlink="http://www.w3.org/1999/xlink">
    <!-- Generator: Sketch 51.2 (57519) - http://www.bohemiancoding.com/sketch -->
    <title>Artboard 3 Copy 2</title>
    <desc>Created with Sketch.</desc>
    <defs>
        <linearGradient x1="0%" y1="100%" x2="100%" y2="0%" id="linearGradient-1">
            <stop stop-color="#1C23B9" offset="0%"></stop>
            <stop stop-color="#2B5DDB" offset="100%"></stop>
        </linearGradient>
    </defs>
    <g id="Artboard-3-Copy-2" stroke="none" stroke-width="1" fill="none" fill-rule="evenodd">
        <g id="更多" fill-rule="nonzero">
            <rect id="Rectangle-path" fill="#000000" opacity="0" x="0" y="0" width="20" height="20"></rect>
            <path d="M2.05128205,0 L6.66666666,0 C7.7948718,0 8.71794871,0.923076914 8.71794871,2.05128205 L8.71794871,6.66666666 C8.71794871,7.7948718 7.7948718,8.71794871 6.66666666,8.71794871 L2.05128205,8.71794871 C0.923076914,8.71794871 0,7.7948718 0,6.66666666 L0,2.05128205 C0,0.923076914 0.923076914,0 2.05128205,0 Z M2.05128205,11.2820513 L6.66666666,11.2820513 C7.7948718,11.2820513 8.71794871,12.2051282 8.71794871,13.3333333 L8.71794871,17.9487179 C8.71794871,19.0769231 7.7948718,20 6.66666666,20 L2.05128205,20 C0.923076914,20 0,19.0769231 0,17.9487179 L0,13.3333333 C0,12.2051282 0.923076914,11.2820513 2.05128205,11.2820513 Z M13.3333333,11.2820513 L17.9487179,11.2820513 C19.0769231,11.2820513 20,12.2051282 20,13.3333333 L20,17.9487179 C20,19.0769231 19.0769231,20 17.9487179,20 L13.3333333,20 C12.2051282,20 11.2820513,19.0769231 11.2820513,17.9487179 L11.2820513,13.3333333 C11.2820513,12.2051282 12.2051282,11.2820513 13.3333333,11.2820513 Z M16.7308823,0.495958856 L19.4838235,3.24687729 C20.1720588,3.9346069 20.1720588,5.01910359 19.4838235,5.70683321 L16.7308823,8.4842028 C16.0426471,9.1719324 14.9573529,9.1719324 14.2691177,8.4842028 L11.5161765,5.70683321 C10.8279412,5.01910361 10.8279412,3.93460692 11.5161765,3.24687729 L14.2955882,0.495958856 C14.9573529,-0.165319619 16.0691176,-0.165319619 16.7308823,0.495958856 Z" id="Combined-Shape" fill="url(#linearGradient-1)"></path>
        </g>
    </g>
</svg>