<?xml version="1.0" encoding="UTF-8"?>
<svg width="20px" height="20px" viewBox="0 0 20 20" version="1.1" xmlns="http://www.w3.org/2000/svg" xmlns:xlink="http://www.w3.org/1999/xlink">
    <!-- Generator: Sketch 51.2 (57519) - http://www.bohemiancoding.com/sketch -->
    <title>Artboard 3 Copy</title>
    <desc>Created with Sketch.</desc>
    <defs>
        <linearGradient x1="25.3295898%" y1="78.7475586%" x2="100%" y2="0%" id="linearGradient-1">
            <stop stop-color="#1B23B8" offset="0%"></stop>
            <stop stop-color="#2A5BDA" offset="100%"></stop>
        </linearGradient>
    </defs>
    <g id="Artboard-3-Copy" stroke="none" stroke-width="1" fill="none" fill-rule="evenodd">
        <g id="排行榜" transform="translate(0.000000, 1.000000)" fill-rule="nonzero">
            <rect id="Rectangle-path" fill="#000000" opacity="0" x="0" y="0" width="20" height="20"></rect>
            <path d="M18,1.96551724 L17.3333333,1.96551724 L17.3333333,1.31034482 C17.3333333,0.586661354 16.7363797,6.8192578e-17 16,0 L4,0 C3.26362034,-6.8192578e-17 2.66666667,0.586661354 2.66666666,1.31034482 L2.66666666,1.96551724 L2,1.96551724 C0.897,1.96551724 0,2.84705173 0,3.93103448 L0,5.2413793 C0,6.32536206 0.897,7.20689654 2,7.20689654 L2.66666666,7.20689654 C2.66666666,10.9498965 5.60966666,14.0485345 9.33333334,14.3823448 L9.33333334,16.3793103 L7.462,16.3793103 C7.18404108,16.3792763 6.93523024,16.5487308 6.83766666,16.8045172 L6.33766666,18.1148621 C6.26091977,18.3160725 6.28944909,18.5414779 6.41401523,18.7180794 C6.53858137,18.894681 6.74334791,19.0000268 6.962,19 L13.038,19 C13.2566521,19.0000268 13.4614186,18.894681 13.5859848,18.7180794 C13.7105509,18.5414779 13.7390802,18.3160725 13.6623333,18.1148621 L13.1623333,16.8045172 C13.0647698,16.5487308 12.8159589,16.3792763 12.538,16.3793103 L10.6666667,16.3793103 L10.6666667,14.3823448 C14.3903333,14.0485345 17.3333333,10.9498966 17.3333333,7.20689654 L18,7.20689654 C19.103,7.20689654 20,6.32536206 20,5.2413793 L20,3.93103448 C20,2.84737932 19.103,1.96551724 18,1.96551724 Z M2,5.89655173 C1.63233334,5.89655173 1.33333334,5.6027069 1.33333334,5.2413793 L1.33333334,3.93103448 C1.33333334,3.5697069 1.63233334,3.27586208 2,3.27586206 L2.66666666,3.27586206 L2.66666666,5.89655173 L2,5.89655173 Z M12.5803333,5.8637931 L11.5043333,6.94482758 L11.747,8.42944827 C11.7777261,8.52030635 11.7621758,8.62013885 11.7051999,8.69780311 C11.6482241,8.77546736 11.5567576,8.82151033 11.4593333,8.82156896 L11.4553333,8.82156896 C11.4063359,8.8213015 11.3580699,8.80986357 11.3143333,8.78815516 L9.99733334,8.06812069 L8.681,8.77963793 C8.65803332,8.91719175 8.54113752,9.02073951 8.39954524,9.02895408 C8.25795295,9.03716865 8.12947223,8.94785657 8.09019697,8.81391376 C8.05092171,8.67997095 8.11133922,8.53716288 8.23566666,8.47006896 L8.49233334,6.93925862 L7.419,5.85396551 C7.33940555,5.77427384 7.31232324,5.65729293 7.349,5.55160345 C7.38447141,5.44534085 7.47806653,5.36794959 7.59066666,5.35177586 L9.06533334,5.13360344 L9.72933334,3.75086206 C9.77964485,3.64630336 9.88690121,3.57972911 10.00459,3.58000967 C10.1222788,3.58029022 10.2292052,3.64737507 10.279,3.75217242 L10.9376667,5.13884483 L12.41,5.36160344 C12.5223333,5.37798275 12.6146667,5.45496551 12.651,5.5620862 C12.6870711,5.667712 12.6597645,5.78429575 12.5803333,5.8637931 Z M18.6666667,5.2413793 C18.6666667,5.60270688 18.3676667,5.89655171 18,5.89655173 L17.3333333,5.89655173 L17.3333333,3.27586206 L18,3.27586206 C18.3676667,3.27586206 18.6666667,3.56970689 18.6666667,3.93103448 L18.6666667,5.2413793 Z" id="Shape" fill="url(#linearGradient-1)"></path>
        </g>
    </g>
</svg>